<svg width="139" height="166" viewBox="0 0 139 166" fill="none" xmlns="http://www.w3.org/2000/svg">
<path d="M138.625 0.56031C138.572 0.513887 138.518 0.468657 138.464 0.421387C136.593 2.4533 134.731 4.4931 132.848 6.51406C126.279 13.5682 119.714 20.625 113.127 27.664C106.573 34.6674 100.247 41.4034 93.6924 48.4072C97.6007 49.7895 100.349 51.1094 102.952 52.8559L138.625 0.56031Z" fill="#F7F8F8"/>
<path d="M75.8295 39.9716C83.1783 38.8722 90.1731 39.5847 97.1356 41.9161C100.778 38.0284 104.33 34.3308 108.136 30.269C97.1904 25.0786 84.5375 23.2579 72.182 25.4269C73.3922 30.393 74.617 34.9884 75.8295 39.9716Z" fill="#F7F8F8"/>
<path d="M40.8811 42.4748C41.3862 42.7582 42.3503 43.2635 42.6435 43.4078C46.6644 45.3792 50.0987 46.9843 54.0899 49.0166C54.9466 49.4528 55.078 49.3207 56.6404 48.1956C62.0071 44.3309 65.3276 42.7039 71.3891 40.9232L70.297 33.6322C69.9068 31.1413 69.5141 28.6405 69.2368 26.0612C58.0966 28.4232 49.1411 34.0104 40.8811 42.4748Z" fill="#F7F8F8"/>
<path d="M77.1006 44.9596C79.6617 44.6171 82.3142 44.3595 84.9612 44.611L84.9489 42.5076C81.7074 42.3364 79.8647 42.414 76.5863 42.9037C76.7692 43.6767 76.9836 44.4648 77.1006 44.9596Z" fill="#F7F8F8"/>
<path d="M94.7835 44.2682C92.2551 43.4221 89.1111 42.8597 86.3577 42.5726L86.1741 44.706C88.9186 44.9883 90.4768 45.2951 93.0709 45.9809L94.7835 44.2682Z" fill="#F7F8F8"/>
<path d="M65.3433 46.373C67.7779 45.2419 69.176 44.6964 71.7508 43.9489L72.0627 46.047C69.6713 46.792 68.4192 47.2927 66.2806 48.2731L65.3433 46.373Z" fill="#F7F8F8"/>
<path d="M64.0975 46.9655L65.2459 48.7961C63.1147 49.8889 61.9631 50.5778 60.027 52.0139L57.9121 50.9678C60.1204 49.2758 61.4772 48.4014 64.0975 46.9655Z" fill="#F7F8F8"/>
<path d="M0.513725 26.8681C0.467296 26.922 0.422062 26.9752 0.374786 27.0292C2.40653 28.9006 4.44615 30.7626 6.46694 32.6457C13.5204 39.2157 20.5767 45.7815 27.6151 52.3692C34.6178 58.9238 41.3533 65.2507 48.3565 71.8056C49.7391 67.8974 51.0592 65.1493 52.806 62.5462L0.513725 26.8681Z" fill="#A3A2A2"/>
<path d="M39.9193 89.6676C38.8205 82.3187 39.5337 75.324 41.8657 68.3617C37.9783 64.7186 34.281 61.1663 30.2197 57.36C25.0282 68.3054 23.2064 80.9581 25.3742 93.3138C30.3404 92.104 34.936 90.8797 39.9193 89.6676Z" fill="#A3A2A2"/>
<path d="M42.4193 124.616C42.7027 124.111 43.208 123.147 43.3524 122.854C45.3242 118.833 46.9296 115.399 48.9622 111.408C49.3986 110.551 49.2664 110.42 48.1414 108.857C44.2773 103.49 42.6506 100.17 40.8704 94.1081L33.5793 95.1996C31.0884 95.5895 28.5876 95.982 26.0083 96.259C28.3692 107.399 33.9556 116.356 42.4193 124.616Z" fill="#A3A2A2"/>
<path d="M44.9074 88.397C44.5651 85.8359 44.3077 83.1834 44.5594 80.5364L42.4561 80.5484C42.2845 83.79 42.362 85.6326 42.8514 88.9111C43.6245 88.7282 44.4126 88.514 44.9074 88.397Z" fill="#A3A2A2"/>
<path d="M44.2176 70.714C43.3712 73.2423 42.8086 76.3863 42.5212 79.1397L44.6545 79.3235C44.9371 76.579 45.2441 75.0208 45.9301 72.4268L44.2176 70.714Z" fill="#A3A2A2"/>
<path d="M46.3197 100.154C45.1888 97.7197 44.6434 96.3215 43.8962 93.7467L45.9943 93.4351C46.7391 95.8264 47.2397 97.0786 48.2199 99.2173L46.3197 100.154Z" fill="#A3A2A2"/>
<path d="M46.9121 101.4L48.7428 100.252C49.8354 102.383 50.5242 103.535 51.9601 105.471L50.9138 107.586C49.222 105.378 48.3477 104.021 46.9121 101.4Z" fill="#A3A2A2"/>
<path d="M27.4304 165.441C27.4846 165.487 27.5382 165.532 27.5926 165.579C29.4474 163.532 31.2929 161.477 33.1595 159.441C39.672 152.334 46.1804 145.225 52.7108 138.134C59.2084 131.078 65.4804 124.291 71.9782 117.235C68.059 115.884 65.3002 114.587 62.683 112.861L27.4304 165.441Z" fill="#797877"/>
<path d="M89.9081 125.527C82.5684 126.686 75.5681 126.029 68.5871 123.754C64.9757 127.671 61.4535 131.396 57.6803 135.489C68.6674 140.591 81.3345 142.31 93.6722 140.042C92.4222 135.086 91.1606 130.501 89.9081 125.527Z" fill="#797877"/>
<path d="M124.835 122.744C124.328 122.464 123.36 121.967 123.066 121.825C119.029 119.886 115.582 118.308 111.575 116.308C110.714 115.879 110.584 116.012 109.031 117.15C103.695 121.057 100.388 122.711 94.3408 124.54L95.4913 131.822C95.9015 134.31 96.3142 136.807 96.6122 139.384C107.733 136.933 116.644 131.274 124.835 122.744Z" fill="#797877"/>
<path d="M88.5971 120.55C86.0389 120.913 83.3885 121.192 80.7396 120.961L80.7687 123.064C84.0115 123.21 85.8535 123.117 89.1278 122.601C88.9387 121.83 88.7181 121.043 88.5971 120.55Z" fill="#797877"/>
<path d="M70.9203 121.383C73.4554 122.209 76.6038 122.746 79.3594 123.011L79.5259 120.876C76.7792 120.616 75.2186 120.321 72.6192 119.656L70.9203 121.383Z" fill="#797877"/>
<path d="M100.343 119.042C97.9172 120.193 96.5235 120.749 93.9548 121.517L93.6262 119.422C96.0114 118.658 97.2595 118.147 99.3902 117.149L100.343 119.042Z" fill="#797877"/>
<path d="M101.584 118.439L100.421 116.618C102.543 115.508 103.689 114.81 105.614 113.359L107.737 114.388C105.542 116.097 104.192 116.983 101.584 118.439Z" fill="#797877"/>
</svg>
